<?xml version="1.0" encoding="UTF-8"?>
<svg xmlns="http://www.w3.org/2000/svg" xmlns:xlink="http://www.w3.org/1999/xlink" width="200pt" height="178pt" viewBox="0 0 200 178" version="1.1">
<g id="surface1">
<path style=" stroke:none;fill-rule:nonzero;fill:rgb(0%,0%,0%);fill-opacity:1;" d="M 183.609375 10.78125 C 183.015625 10.875 182.625 11.140625 182.46875 11.578125 C 182.4375 11.640625 180.75 11.859375 178.703125 12.0625 L 174.96875 12.4375 L 174.6875 12.078125 C 174.484375 11.8125 174.25 11.71875 173.8125 11.71875 C 172.625 11.71875 172.5 11.8125 172.5 12.71875 C 172.5 13.171875 172.5625 13.59375 172.640625 13.671875 C 172.734375 13.765625 172.8125 14.171875 172.84375 14.609375 L 172.890625 15.390625 L 174.421875 15.390625 C 175.53125 15.390625 175.9375 15.4375 175.9375 15.578125 C 175.9375 15.6875 175.875 15.78125 175.8125 15.78125 C 175.75 15.78125 173.796875 15.984375 171.484375 16.25 C 169.15625 16.5 165.9375 16.859375 164.296875 17.046875 C 162.671875 17.21875 160.09375 17.5 158.59375 17.65625 C 157.09375 17.8125 154.484375 18.09375 152.8125 18.28125 C 151.140625 18.453125 148.890625 18.703125 147.8125 18.828125 C 145.84375 19.046875 142.4375 19.421875 136.875 20 C 135.203125 20.1875 132.5625 20.46875 131.015625 20.625 C 129.46875 20.796875 127.5 21.015625 126.640625 21.09375 C 125.78125 21.1875 124.484375 21.328125 123.75 21.40625 C 123.015625 21.484375 121.015625 21.703125 119.296875 21.875 C 117.578125 22.0625 115.359375 22.3125 114.375 22.4375 C 112.5625 22.65625 108.171875 23.15625 105.546875 23.4375 C 104.78125 23.515625 102.84375 23.734375 101.25 23.90625 C 98.53125 24.203125 93.203125 24.734375 85.46875 25.46875 C 79.453125 26.046875 76.1875 26.40625 75.296875 26.5625 C 74.828125 26.640625 74.15625 26.71875 73.828125 26.71875 C 73.484375 26.71875 71.9375 26.859375 70.390625 27.03125 C 68.84375 27.1875 66.203125 27.46875 64.53125 27.65625 C 62.859375 27.828125 60.890625 28.03125 60.15625 28.125 C 59.421875 28.203125 58.125 28.34375 57.265625 28.4375 C 56.40625 28.515625 54.40625 28.734375 52.8125 28.90625 C 51.21875 29.078125 49.1875 29.296875 48.28125 29.390625 C 47.375 29.484375 46.1875 29.625 45.625 29.703125 C 44.671875 29.828125 44.59375 29.828125 44.375 29.5 C 43.765625 28.59375 43.53125 28.453125 42.421875 28.296875 C 41.828125 28.21875 39.015625 27.78125 36.171875 27.34375 C 33.34375 26.90625 30.59375 26.46875 30.078125 26.390625 C 29.5625 26.3125 28.296875 26.109375 27.25 25.953125 C 25.6875 25.703125 25.140625 25.671875 24.046875 25.8125 C 23.328125 25.890625 22.71875 25.984375 22.6875 26.015625 C 22.671875 26.03125 22.859375 26.671875 23.109375 27.4375 C 23.359375 28.203125 23.859375 29.765625 24.21875 30.921875 C 24.921875 33.140625 25.265625 33.671875 25.875 33.546875 C 26.078125 33.515625 26.25 33.53125 26.25 33.609375 C 26.25 33.671875 25.953125 34.15625 25.59375 34.703125 L 24.921875 35.671875 L 22.96875 35.546875 C 21.890625 35.484375 20.84375 35.421875 20.625 35.40625 C 20.40625 35.390625 20.140625 35.328125 20.03125 35.25 C 19.921875 35.1875 19.734375 35.203125 19.625 35.296875 C 19.515625 35.390625 19.375 35.421875 19.328125 35.359375 C 19.078125 35.125 17.8125 36.0625 17.8125 36.46875 C 17.8125 36.59375 17.734375 36.75 17.640625 36.796875 C 17.546875 36.859375 17.515625 37.015625 17.5625 37.140625 C 17.625 37.28125 17.59375 37.46875 17.515625 37.5625 C 17.4375 37.65625 17.421875 38.234375 17.5 38.984375 C 17.578125 39.671875 17.703125 40.953125 17.796875 41.84375 C 17.890625 42.75 18.078125 43.671875 18.234375 43.953125 C 18.375 44.234375 18.484375 44.5 18.46875 44.546875 C 18.421875 44.765625 19.078125 45.1875 19.453125 45.203125 C 19.71875 45.203125 20.1875 45.515625 20.890625 46.15625 C 22.578125 47.703125 23.5 49.359375 24.015625 51.796875 C 24.203125 52.71875 24.21875 53.265625 24.046875 55.390625 C 23.890625 57.578125 23.8125 57.96875 23.46875 58.5625 C 22.640625 60.015625 20.578125 61.84375 19.53125 62.078125 C 19.3125 62.125 18.65625 62.34375 18.0625 62.578125 C 15.625 63.5 12.9375 63.75 9.015625 63.4375 C 5.734375 63.1875 5.71875 63.1875 5.8125 64.71875 C 5.875 65.75 5.90625 65.859375 6.40625 66.28125 C 7.171875 66.921875 9.859375 68.203125 11.25 68.59375 C 12.625 68.96875 15.75 69.015625 19 68.734375 C 21.375 68.515625 23.015625 68.703125 24.828125 69.359375 C 30.5625 71.453125 33.390625 77.78125 31.375 83.96875 C 31.046875 84.984375 29.0625 89.375 27.796875 91.90625 C 27.375 92.75 27.03125 93.5 27.03125 93.59375 C 27.03125 93.671875 26.78125 94.265625 26.484375 94.90625 C 26.1875 95.546875 25.9375 96.1875 25.9375 96.3125 C 25.9375 96.4375 25.875 96.578125 25.796875 96.625 C 25.734375 96.671875 25.546875 97.046875 25.40625 97.453125 C 25.09375 98.3125 24.859375 98.875 24.671875 99.25 C 24.59375 99.40625 24.53125 99.640625 24.53125 99.765625 C 24.53125 99.90625 24.421875 100.1875 24.28125 100.390625 C 24.140625 100.609375 24.078125 100.78125 24.140625 100.78125 C 24.203125 100.78125 24.1875 100.875 24.109375 100.96875 C 23.890625 101.234375 23.515625 102.375 23.5625 102.609375 C 23.578125 102.703125 23.53125 102.828125 23.4375 102.890625 C 23.359375 102.9375 23.28125 103.15625 23.28125 103.359375 C 23.28125 103.5625 23.21875 103.78125 23.125 103.828125 C 23.046875 103.875 22.96875 104.09375 22.96875 104.296875 C 22.96875 104.5 22.90625 104.71875 22.8125 104.765625 C 22.734375 104.8125 22.65625 105.03125 22.65625 105.234375 C 22.65625 105.4375 22.59375 105.640625 22.515625 105.6875 C 22.453125 105.734375 22.328125 106.078125 22.265625 106.4375 C 22.1875 106.8125 22.125 107.140625 22.109375 107.1875 C 22.09375 107.234375 22.046875 107.375 21.984375 107.5 C 21.875 107.765625 21.234375 110.375 21.15625 110.859375 C 21.125 111.03125 20.96875 111.796875 20.796875 112.578125 C 19.921875 116.625 19.796875 117.203125 19.609375 118.359375 C 19.578125 118.53125 19.546875 118.671875 19.53125 118.671875 C 19.515625 118.671875 19.375 119.296875 19.21875 120.078125 C 18.734375 122.5 18.4375 123.953125 18.171875 125.078125 C 18.03125 125.671875 17.890625 126.375 17.875 126.640625 C 17.859375 126.890625 17.796875 127.28125 17.75 127.5 C 17.609375 128.125 17.1875 130.203125 17.109375 130.625 C 17.078125 130.84375 17.015625 131.234375 16.96875 131.5 C 16.921875 131.765625 16.78125 132.296875 16.65625 132.671875 C 16.171875 134.078125 15.921875 136.546875 15.96875 139.1875 L 16 141.75 L 15.203125 142.125 C 14.28125 142.5625 14.234375 142.671875 13.6875 145 C 13.46875 145.90625 13.15625 147.265625 12.96875 148.046875 C 12.25 151.140625 11.53125 154.046875 11.21875 155.078125 C 10.875 156.234375 10.875 156.046875 11.40625 160.078125 C 11.546875 161.140625 11.59375 161.4375 11.796875 163.28125 C 11.859375 163.75 11.921875 164.3125 11.953125 164.53125 C 11.984375 164.75 12.046875 165.28125 12.109375 165.734375 C 12.21875 166.609375 12.5 166.921875 13.375 167.125 C 13.625 167.1875 13.90625 167.28125 13.984375 167.34375 C 14.078125 167.421875 14.703125 167.59375 15.390625 167.734375 C 16.828125 168.03125 19.765625 167.96875 22.890625 167.578125 C 23.921875 167.453125 25.21875 167.296875 25.78125 167.265625 C 26.34375 167.21875 27.15625 167.078125 27.578125 166.953125 C 28.015625 166.828125 29.171875 166.65625 30.15625 166.5625 C 31.140625 166.453125 32.171875 166.3125 32.421875 166.25 C 33.140625 166.03125 34.140625 165.96875 34.921875 166.09375 C 35.3125 166.15625 35.671875 166.140625 35.71875 166.078125 C 35.859375 165.84375 41.75 164.875 42.5 164.953125 C 42.625 164.96875 44.171875 164.8125 45.9375 164.59375 C 47.703125 164.359375 49.421875 164.15625 49.75 164.125 C 50.09375 164.09375 50.5 164.015625 50.6875 163.96875 C 50.859375 163.90625 51.4375 163.875 51.96875 163.890625 C 52.5 163.90625 53.140625 163.828125 53.390625 163.734375 C 53.78125 163.578125 54.421875 163.5 57.546875 163.171875 C 58.03125 163.125 58.4375 163.03125 58.4375 162.953125 C 58.4375 162.875 58.546875 162.8125 58.671875 162.8125 C 58.796875 162.8125 58.90625 162.75 58.90625 162.671875 C 58.90625 162.59375 59.21875 162.53125 59.59375 162.53125 C 59.984375 162.53125 60.703125 162.4375 61.203125 162.34375 C 62.25 162.140625 64.75 161.59375 65.3125 161.453125 C 65.765625 161.34375 65.96875 161.296875 66.71875 161.1875 C 67.453125 161.078125 69.109375 160.390625 70.125 159.78125 C 70.828125 159.375 70.9375 159.234375 70.890625 158.90625 C 70.484375 156.484375 69.84375 151.25 69.84375 150.421875 C 69.84375 150 69.734375 149.71875 69.46875 149.453125 C 69.25 149.234375 68.671875 148.578125 68.15625 147.96875 C 67.421875 147.09375 67.203125 146.703125 67.03125 145.984375 C 66.78125 144.8125 66.65625 144.578125 66.078125 144.28125 C 65.65625 144.0625 65.609375 143.96875 65.6875 143.5625 C 65.734375 143.3125 65.671875 142.390625 65.53125 141.515625 C 65.328125 140.125 65.265625 138.40625 65.125 130.9375 C 65.125 130.640625 65.234375 129.796875 65.390625 129.0625 C 65.65625 127.703125 65.6875 127.578125 65.859375 126.484375 C 66.0625 125.21875 66.421875 123.34375 66.5625 122.8125 C 66.65625 122.515625 66.875 121.53125 67.046875 120.625 C 67.234375 119.71875 67.453125 118.6875 67.515625 118.3125 C 67.59375 117.953125 67.71875 117.359375 67.78125 116.984375 C 67.859375 116.625 67.953125 116.25 68 116.171875 C 68.046875 116.078125 68.140625 115.640625 68.1875 115.1875 C 68.234375 114.71875 68.3125 114.296875 68.359375 114.234375 C 68.390625 114.171875 68.46875 113.875 68.515625 113.578125 C 68.640625 112.875 69.171875 110.25 69.375 109.375 C 69.46875 108.984375 69.5625 108.5 69.609375 108.296875 C 69.71875 107.71875 70.15625 105.828125 70.484375 104.578125 C 70.65625 103.953125 70.78125 103.328125 70.78125 103.203125 C 70.78125 103.078125 70.921875 102.671875 71.09375 102.296875 C 71.25 101.9375 71.703125 100.40625 72.09375 98.890625 C 72.46875 97.375 72.90625 95.875 73.03125 95.546875 C 73.171875 95.234375 73.28125 94.875 73.28125 94.765625 C 73.28125 94.65625 73.40625 94.296875 73.546875 93.96875 C 73.6875 93.625 73.796875 93.3125 73.78125 93.25 C 73.734375 93.046875 75.0625 92.015625 75.890625 91.609375 C 76.6875 91.234375 76.71875 91.1875 76.515625 90.875 C 75.859375 89.875 75.875 89.890625 76.125 89.484375 C 76.484375 88.96875 78.640625 87.875 79.9375 87.5625 C 82 87.078125 84.453125 87.40625 87.890625 88.59375 C 89.703125 89.21875 92.296875 89.8125 94.375 90.078125 C 96.875 90.40625 101.40625 90.328125 103.671875 89.9375 C 109.671875 88.890625 116.046875 86.40625 122.453125 82.609375 C 124.5 81.390625 125.40625 80.609375 125.234375 80.203125 C 125.171875 80.046875 125.109375 79.40625 125.0625 78.78125 C 125.03125 78.15625 124.953125 77.5625 124.890625 77.46875 C 124.84375 77.359375 124.796875 77.015625 124.828125 76.703125 C 124.84375 76.375 124.78125 76.078125 124.703125 76.03125 C 124.625 75.984375 124.59375 75.671875 124.640625 75.328125 C 124.6875 74.984375 124.65625 74.6875 124.5625 74.625 C 124.46875 74.578125 124.4375 74.296875 124.484375 74 C 124.53125 73.703125 124.5 73.4375 124.390625 73.375 C 124.296875 73.3125 124.265625 73.0625 124.328125 72.8125 C 124.375 72.546875 124.328125 72.25 124.234375 72.125 C 124.109375 71.984375 124.078125 71.6875 124.140625 71.375 C 124.21875 70.984375 124.171875 70.78125 124 70.640625 C 123.796875 70.46875 123.78125 70.375 123.9375 70.203125 C 124.078125 70.03125 124.078125 69.859375 123.921875 69.4375 C 123.8125 69.140625 123.78125 68.765625 123.828125 68.578125 C 123.890625 68.375 123.84375 68.15625 123.671875 67.96875 C 123.421875 67.6875 123.421875 67.640625 123.65625 67.28125 C 123.796875 67.0625 124.03125 66.8125 124.203125 66.734375 C 124.421875 66.609375 124.5625 66.203125 124.75 65.125 C 125.390625 61.65625 127.34375 58.796875 130.046875 57.390625 C 131.921875 56.40625 132.765625 56.234375 139.53125 55.46875 C 141.8125 55.203125 144.25 54.921875 144.96875 54.84375 C 146.265625 54.6875 147.8125 54.5 150.203125 54.21875 C 150.90625 54.140625 152.125 54 152.890625 53.90625 C 154.9375 53.65625 156.59375 53.46875 158.28125 53.28125 C 160.453125 53.03125 161.609375 52.828125 161.75 52.6875 C 161.8125 52.625 161.890625 52.078125 161.90625 51.484375 L 161.953125 50.390625 L 162.5625 50.390625 C 163.15625 50.390625 163.1875 50.421875 163.421875 51.125 C 163.5625 51.53125 163.765625 51.953125 163.875 52.0625 C 164.03125 52.21875 164.859375 52.265625 167.1875 52.265625 C 170.921875 52.265625 170.828125 52.3125 170.90625 50.5625 C 170.96875 49.53125 171.015625 49.390625 171.3125 49.3125 C 171.484375 49.265625 171.6875 49.21875 171.75 49.21875 C 171.796875 49.21875 171.96875 49.59375 172.109375 50.03125 C 172.265625 50.484375 172.4375 50.921875 172.515625 51 C 172.578125 51.078125 173.359375 51.21875 174.25 51.3125 C 175.5625 51.46875 176.203125 51.453125 177.71875 51.25 C 179.84375 50.984375 179.84375 50.984375 179.90625 49.296875 C 179.9375 48.46875 179.96875 48.359375 180.265625 48.3125 C 180.53125 48.265625 180.640625 48.40625 180.859375 49.09375 C 181.015625 49.546875 181.171875 49.96875 181.234375 50.03125 C 181.28125 50.078125 182.109375 50.203125 183.078125 50.3125 C 184.546875 50.46875 185.140625 50.453125 186.828125 50.234375 C 187.921875 50.09375 188.953125 49.953125 189.125 49.90625 C 189.296875 49.84375 189.625 49.328125 189.953125 48.640625 L 190.484375 47.46875 L 190.296875 45.46875 C 190.125 43.796875 190.140625 43.375 190.3125 43.015625 C 190.671875 42.25 190.6875 39.265625 190.328125 36.171875 C 189.78125 31.265625 189.78125 31.265625 190.0625 31.15625 C 190.203125 31.109375 190.3125 30.890625 190.3125 30.6875 C 190.3125 30.484375 190.484375 30.078125 190.6875 29.765625 C 191.296875 28.859375 191.453125 27.734375 191.359375 24.921875 C 191.265625 22.296875 190.9375 20.609375 190.328125 19.40625 C 189.96875 18.703125 189.171875 17.96875 188.765625 17.96875 C 188.609375 17.96875 188.34375 17.6875 188.125 17.296875 C 187.921875 16.9375 187.578125 16.390625 187.34375 16.09375 C 187.125 15.796875 186.609375 14.84375 186.1875 13.984375 C 184.875 11.21875 184.609375 10.71875 184.453125 10.6875 C 184.375 10.671875 183.984375 10.71875 183.609375 10.78125 Z M 23.84375 38.328125 C 23.90625 38.390625 23.875 38.828125 23.765625 39.3125 C 23.546875 40.40625 23.53125 43.015625 23.75 43.734375 C 23.828125 44.03125 24.046875 44.40625 24.21875 44.5625 C 24.515625 44.84375 24.640625 45.15625 24.4375 45.15625 C 24.390625 45.15625 23.953125 44.84375 23.46875 44.484375 C 22.984375 44.109375 22.25 43.609375 21.84375 43.375 C 21.171875 42.984375 21.0625 42.84375 20.84375 42.078125 C 20.703125 41.59375 20.578125 40.734375 20.5625 40.15625 C 20.546875 38.96875 20.78125 38.546875 21.625 38.28125 C 22.140625 38.125 23.6875 38.15625 23.84375 38.328125 Z M 112.09375 58.90625 C 115.296875 59.71875 117.953125 61.953125 119.46875 65.09375 C 120.375 66.984375 120.671875 68.375 120.671875 70.78125 C 120.671875 73.25 120.375 74.609375 119.390625 76.671875 C 117.734375 80.109375 115.015625 82.390625 110.078125 84.453125 C 105.34375 86.4375 100.421875 87.328125 95.234375 87.140625 C 92.046875 87.015625 90.296875 86.65625 88.390625 85.71875 C 85.875 84.5 84.140625 82.796875 82.953125 80.390625 C 82.09375 78.609375 81.8125 77.4375 81.828125 75.390625 C 81.828125 71.8125 83.25 68.796875 86.015625 66.46875 C 86.609375 65.96875 87.359375 65.296875 87.65625 65 C 88.46875 64.1875 89.140625 63.828125 90.984375 63.203125 L 92.671875 62.640625 L 93.796875 63.546875 C 94.40625 64.046875 95.296875 64.734375 95.75 65.078125 C 96.5 65.640625 96.5625 65.734375 96.5625 66.34375 C 96.5625 66.703125 96.640625 67.03125 96.71875 67.0625 C 96.875 67.109375 96.921875 67.28125 97.125 68.4375 C 97.34375 69.671875 97.828125 71.3125 98.046875 71.5625 C 98.171875 71.703125 98.28125 71.90625 98.28125 72 C 98.28125 72.3125 99.453125 74.59375 100.125 75.578125 C 100.90625 76.734375 102.953125 78.671875 104.109375 79.359375 C 104.59375 79.640625 105.609375 80.09375 106.359375 80.34375 C 107.578125 80.765625 107.875 80.8125 108.984375 80.734375 C 109.671875 80.6875 110.359375 80.609375 110.5 80.546875 C 110.90625 80.390625 110.984375 79.890625 110.6875 79.390625 C 110.453125 79 110.140625 78.84375 108.6875 78.359375 C 105.609375 77.375 103.578125 75.703125 102.28125 73.125 C 100.921875 70.40625 100.734375 67.71875 101.71875 64.609375 C 102.140625 63.25 102.1875 62.96875 102.03125 62.453125 C 101.890625 61.96875 101.796875 61.875 101.4375 61.859375 C 101.078125 61.859375 101.15625 61.796875 101.84375 61.484375 C 102.3125 61.265625 103.15625 60.78125 103.734375 60.40625 C 106.28125 58.703125 109.25 58.171875 112.09375 58.90625 Z M 112.09375 58.90625 "/>
<path style=" stroke:none;fill-rule:nonzero;fill:rgb(0%,0%,0%);fill-opacity:1;" d="M 10 46.09375 C 10 46.171875 10.078125 46.25 10.171875 46.25 C 10.25 46.25 10.28125 46.171875 10.234375 46.09375 C 10.1875 46 10.109375 45.9375 10.0625 45.9375 C 10.03125 45.9375 10 46 10 46.09375 Z M 10 46.09375 "/>
<path style=" stroke:none;fill-rule:nonzero;fill:rgb(0%,0%,0%);fill-opacity:1;" d="M 5.78125 68.59375 C 5.78125 68.671875 5.859375 68.75 5.9375 68.75 C 6.03125 68.75 6.09375 68.671875 6.09375 68.59375 C 6.09375 68.5 6.03125 68.4375 5.9375 68.4375 C 5.859375 68.4375 5.78125 68.5 5.78125 68.59375 Z M 5.78125 68.59375 "/>
<path style=" stroke:none;fill-rule:nonzero;fill:rgb(0%,0%,0%);fill-opacity:1;" d="M 0 76.90625 C 0 77.21875 0.015625 77.234375 0.3125 76.953125 C 0.484375 76.796875 0.625 76.640625 0.625 76.609375 C 0.625 76.59375 0.484375 76.5625 0.3125 76.5625 C 0.09375 76.5625 0 76.671875 0 76.90625 Z M 0 76.90625 "/>
<path style=" stroke:none;fill-rule:nonzero;fill:rgb(0%,0%,0%);fill-opacity:1;" d="M 71.328125 159.796875 C 71.5 159.96875 71.71875 160.21875 71.796875 160.375 C 71.96875 160.671875 72.234375 160.734375 72.3125 160.5 C 72.328125 160.421875 72.046875 160.171875 71.6875 159.9375 C 71.3125 159.703125 71.15625 159.640625 71.328125 159.796875 Z M 71.328125 159.796875 "/>
<path style=" stroke:none;fill-rule:nonzero;fill:rgb(0%,0%,0%);fill-opacity:1;" d="M 32.8125 166.734375 C 32.8125 166.8125 32.890625 166.84375 32.96875 166.796875 C 33.0625 166.75 33.125 166.671875 33.125 166.625 C 33.125 166.59375 33.0625 166.5625 32.96875 166.5625 C 32.890625 166.5625 32.8125 166.640625 32.8125 166.734375 Z M 32.8125 166.734375 "/>
</g>
</svg>
