<svg id="icons" enable-background="new 0 0 64 64" height="512" viewBox="0 0 64 64" width="512" xmlns="http://www.w3.org/2000/svg"><path d="m1 54.002h62c.553 0 1-.447 1-1v-38c0-.02-.01-.035-.011-.054-.004-.069-.022-.134-.04-.201-.017-.061-.029-.12-.056-.176-.025-.053-.063-.098-.099-.146-.042-.058-.082-.115-.137-.163-.013-.012-.02-.028-.033-.04l-5.002-4.004c-.034-.027-.075-.035-.111-.058-.061-.037-.118-.072-.187-.096-.066-.023-.133-.032-.202-.041-.043-.006-.081-.025-.125-.025h-51.996c-.042 0-.079.019-.12.024-.07.009-.14.018-.209.042-.066.023-.124.059-.184.095-.036.022-.078.031-.112.059l-5.001 4.004c-.014.012-.021.028-.033.04-.055.048-.095.105-.137.164-.035.048-.073.093-.099.146-.027.056-.039.116-.056.177-.018.066-.036.131-.04.2 0 .018-.01.033-.01.053v38c0 .553.447 1 1 1zm22.985-2h-9.984v-4h9.984zm0-6h-9.984v-3.998h9.984zm0-5.998h-9.984v-4.018h9.984zm0-6.018h-9.984v-9.986h9.984zm0-11.986h-9.984v-5.998h9.984zm13.999 30.002h-11.999v-9.998h11.999zm0-11.998h-11.999v-4.018h11.999zm0-6.018h-11.999v-9.986h11.999zm0-11.986h-11.999v-5.998h11.999zm12.016 30.002h-10.016v-4h10.016zm0-6h-10.016v-3.998h10.016zm0-5.998h-10.016v-4.018h10.016zm0-6.018h-10.016v-9.986h10.016zm0-11.986h-10.016v-5.998h10.016zm12 30.002h-10v-4h10zm0-6h-10v-3.998h10zm0-5.998h-10v-4.018h10zm0-6.018h-10v-9.986h10zm0-11.986h-10v-5.998h10zm-55.648-10.002h51.296l2.503 2.004h-56.302zm-4.352 4.004h10.001v5.998h-10.001zm0 7.998h10.001v9.986h-10.001zm0 11.986h10.001v4.018h-10.001zm0 6.018h10.001v3.998h-10.001zm0 5.998h10.001v4h-10.001z"/><path d="m27.984 32.998h8c.553 0 1-.447 1-1v-5.998c0-.553-.447-1-1-1h-8c-.553 0-1 .447-1 1v5.998c0 .553.448 1 1 1zm1-5.998h6v3.998h-6z"/><path d="m33.999 38.994h1.985c.553 0 1-.447 1-1s-.447-1-1-1h-1.985c-.553 0-1 .447-1 1s.447 1 1 1z"/><path d="m28.031 39.004c.552 0 1-.447 1-1s-.448-1-1-1h-.011c-.552 0-.994.447-.994 1s.453 1 1.005 1z"/><path d="m4.03 17.002h-.01c-.552 0-.994.447-.994 1s.452 1 1.005 1c.552 0 1-.447 1-1s-.449-1-1.001-1z"/><path d="m16.03 19.002c.552 0 1-.447 1-1s-.448-1-1-1h-.01c-.552 0-.994.447-.994 1s.452 1 1.004 1z"/><path d="m54.03 19.002c.552 0 1-.447 1-1s-.448-1-1-1h-.01c-.552 0-.994.447-.994 1s.452 1 1.004 1z"/><path d="m42.03 19.002c.552 0 1-.447 1-1s-.448-1-1-1h-.01c-.552 0-.994.447-.994 1s.452 1 1.004 1z"/><path d="m4.03 25.01h-.01c-.552 0-.994.447-.994 1s.452 1 1.005 1c.552 0 1-.447 1-1s-.449-1-1.001-1z"/><path d="m16.03 27.01c.552 0 1-.447 1-1s-.448-1-1-1h-.01c-.552 0-.994.447-.994 1s.452 1 1.004 1z"/><path d="m54.03 27.01c.552 0 1-.447 1-1s-.448-1-1-1h-.01c-.552 0-.994.447-.994 1s.452 1 1.004 1z"/><path d="m42.03 27.01c.552 0 1-.447 1-1s-.448-1-1-1h-.01c-.552 0-.994.447-.994 1s.452 1 1.004 1z"/><path d="m4.03 37.021h-.01c-.552 0-.994.447-.994 1s.452 1 1.005 1c.552 0 1-.447 1-1s-.449-1-1.001-1z"/><path d="m16.03 39.021c.552 0 1-.447 1-1s-.448-1-1-1h-.01c-.552 0-.994.447-.994 1s.452 1 1.004 1z"/><path d="m54.03 39.021c.552 0 1-.447 1-1s-.448-1-1-1h-.01c-.552 0-.994.447-.994 1s.452 1 1.004 1z"/><path d="m42.03 39.021c.552 0 1-.447 1-1s-.448-1-1-1h-.01c-.552 0-.994.447-.994 1s.452 1 1.004 1z"/><path d="m4.03 43.027h-.01c-.552 0-.994.447-.994 1s.452 1 1.005 1c.552 0 1-.447 1-1s-.449-1-1.001-1z"/><path d="m16.03 45.027c.552 0 1-.447 1-1s-.448-1-1-1h-.01c-.552 0-.994.447-.994 1s.452 1 1.004 1z"/><path d="m54.03 45.027c.552 0 1-.447 1-1s-.448-1-1-1h-.01c-.552 0-.994.447-.994 1s.452 1 1.004 1z"/><path d="m42.03 45.027c.552 0 1-.447 1-1s-.448-1-1-1h-.01c-.552 0-.994.447-.994 1s.452 1 1.004 1z"/><path d="m4.03 49.033h-.01c-.552 0-.994.447-.994 1s.452 1 1.005 1c.552 0 1-.447 1-1s-.449-1-1.001-1z"/><path d="m16.03 51.033c.552 0 1-.447 1-1s-.448-1-1-1h-.01c-.552 0-.994.447-.994 1s.452 1 1.004 1z"/><path d="m54.03 51.033c.552 0 1-.447 1-1s-.448-1-1-1h-.01c-.552 0-.994.447-.994 1s.452 1 1.004 1z"/><path d="m42.03 51.033c.552 0 1-.447 1-1s-.448-1-1-1h-.01c-.552 0-.994.447-.994 1s.452 1 1.004 1z"/><path d="m31.034 39.004c.552 0 1-.447 1-1s-.448-1-1-1h-.011c-.552 0-.994.447-.994 1s.452 1 1.005 1z"/></svg>